<?xml version="1.0" encoding="UTF-8" standalone="no"?>
<!DOCTYPE svg PUBLIC "-//W3C//DTD SVG 1.1//EN"
 "http://www.w3.org/Graphics/SVG/1.1/DTD/svg11.dtd">
<!-- Generated by graphviz version 2.38.0 (20140413.2041)
 -->
<!-- Title: compiler Pages: 1 -->
<svg width="144pt" height="142pt"
 viewBox="0.00 0.00 144.40 142.00" xmlns="http://www.w3.org/2000/svg" xmlns:xlink="http://www.w3.org/1999/xlink">
<g id="graph0" class="graph" transform="scale(1 1) rotate(0) translate(13.3976 138)">
<title>compiler</title>
<polygon fill="white" stroke="none" points="-13.3976,4 -13.3976,-138 131,-138 131,4 -13.3976,4"/>
<!-- core.ts -->
<g id="node1" class="node"><title>core.ts</title>
<polygon fill="none" stroke="black" points="54.8568,-47.6013 -0.143245,-47.6013 -0.143245,-11.6013 54.8568,-11.6013 54.8568,-47.6013"/>
<text text-anchor="middle" x="27.3568" y="-25.9013" font-family="Times New Roman,serif" font-size="14.00">core.ts</text>
</g>
<!-- types.ts -->
<g id="node2" class="node"><title>types.ts</title>
<ellipse fill="none" stroke="black" cx="40.0634" cy="-116.253" rx="38.9931" ry="18"/>
<text text-anchor="middle" x="40.0634" y="-112.553" font-family="Times New Roman,serif" font-size="14.00">types.ts</text>
</g>
<!-- core.ts&#45;&gt;types.ts -->
<g id="edge1" class="edge"><title>core.ts&#45;&gt;types.ts</title>
<path fill="none" stroke="black" d="M27.9618,-47.978C27.9618,-47.978 27.9618,-89.0819 27.9618,-89.0819"/>
<polygon fill="black" stroke="black" points="24.4619,-89.0819 27.9618,-99.0819 31.4619,-89.082 24.4619,-89.0819"/>
<text text-anchor="middle" x="17.9618" y="-71.1299" font-family="Times New Roman,serif" font-size="8.00">(147)</text>
</g>
<!-- sys.ts -->
<g id="node3" class="node"><title>sys.ts</title>
<ellipse fill="none" stroke="black" cx="94.7107" cy="-17.5316" rx="31.6951" ry="18"/>
<text text-anchor="middle" x="94.7107" y="-13.8316" font-family="Times New Roman,serif" font-size="14.00">sys.ts</text>
</g>
<!-- core.ts&#45;&gt;sys.ts -->
<g id="edge2" class="edge"><title>core.ts&#45;&gt;sys.ts</title>
<path fill="none" stroke="black" d="M55.141,-23C55.141,-23 56.0637,-23 56.0637,-23"/>
<polygon fill="black" stroke="black" points="54.368,-26.5001 64.368,-23 54.3679,-19.5001 54.368,-26.5001"/>
<text text-anchor="middle" x="23.1024" y="-25.6" font-family="Times New Roman,serif" font-size="8.00">FileWatcher, close</text>
</g>
</g>
</svg>
